<?xml version="1.0" standalone="no"?>
<!DOCTYPE svg PUBLIC "-//W3C//DTD SVG 20010904//EN"
 "http://www.w3.org/TR/2001/REC-SVG-20010904/DTD/svg10.dtd">
<svg version="1.0" xmlns="http://www.w3.org/2000/svg"
 width="96.000000pt" height="96.000000pt" viewBox="0 0 96.000000 96.000000"
 preserveAspectRatio="xMidYMid meet">
<metadata>
Created by potrace 1.14, written by Peter Selinger 2001-2017
</metadata>
<g transform="translate(0.000000,96.000000) scale(0.100000,-0.100000)"
fill="#000000" stroke="none">
<path d="M631 937 c-6 -8 -12 -33 -14 -58 -3 -38 -7 -46 -35 -58 -18 -8 -32
-17 -32 -21 0 -13 41 -50 55 -50 8 0 15 -8 15 -19 0 -36 23 -42 160 -42 72 1
140 6 151 11 17 10 19 22 19 115 0 139 5 135 -169 135 -103 0 -141 -3 -150
-13z"/>
<path d="M454 852 c-35 -23 -34 -80 2 -100 15 -8 17 -25 17 -109 -1 -94 -2
-102 -27 -126 -28 -28 -27 -47 7 -84 17 -19 20 -36 20 -128 -1 -95 -3 -108
-21 -120 -29 -21 -33 -51 -10 -80 22 -29 44 -32 76 -9 28 20 28 58 0 86 -20
20 -23 33 -23 127 -1 97 1 106 22 125 30 26 30 70 1 90 -20 14 -22 25 -23 113
-1 87 1 98 22 121 13 14 23 35 23 47 0 40 -53 69 -86 47z"/>
<path d="M510 725 c0 -8 4 -15 9 -15 5 0 11 7 15 15 3 9 0 15 -9 15 -8 0 -15
-7 -15 -15z"/>
<path d="M510 620 c0 -40 4 -70 10 -70 11 0 13 12 12 75 0 59 -1 65 -12 65 -6
0 -10 -30 -10 -70z"/>
<path d="M20 591 c-13 -25 -13 -197 0 -222 10 -17 23 -19 153 -19 147 0 167 5
167 41 0 10 9 21 20 24 45 14 67 59 29 62 -33 3 -47 21 -47 64 -1 67 -6 69
-168 69 -131 0 -144 -2 -154 -19z"/>
<path d="M748 272 c-118 -3 -134 -11 -130 -66 3 -37 -15 -66 -43 -70 -30 -4
-24 -28 12 -51 18 -11 32 -27 33 -36 0 -34 22 -39 167 -39 130 0 143 2 153 19
15 29 13 216 -2 229 -18 14 -67 17 -190 14z"/>
</g>
</svg>
